<?xml version="1.0" standalone="no"?>
<!DOCTYPE svg PUBLIC "-//W3C//DTD SVG 20010904//EN"
 "http://www.w3.org/TR/2001/REC-SVG-20010904/DTD/svg10.dtd">
<svg version="1.0" xmlns="http://www.w3.org/2000/svg"
 width="1280.000000pt" height="1132.000000pt" viewBox="0 0 1280.000000 1132.000000"
 preserveAspectRatio="xMidYMid meet">
<metadata>
Created by potrace 1.15, written by Peter Selinger 2001-2017
</metadata>
<g transform="translate(0.000000,1132.000000) scale(0.100000,-0.100000)"
fill="#000000" stroke="none">
<path d="M11879 10746 c-497 -309 -1349 -841 -1894 -1180 -544 -339 -988 -620
-986 -624 7 -15 1806 -1150 1812 -1144 13 13 1979 3505 1976 3508 -2 2 -410
-250 -908 -560z"/>
<path d="M12618 11260 c-9 -6 -169 -51 -355 -101 -387 -103 -2154 -576 -3738
-999 -1901 -508 -2059 -550 -2063 -554 -5 -6 -43 5 748 -206 393 -105 724
-189 735 -187 11 3 274 116 585 252 311 136 666 291 790 345 124 54 547 238
940 410 393 171 940 410 1215 530 275 120 547 239 604 264 57 25 106 45 107
43 2 -2 -168 -85 -379 -184 -210 -100 -825 -391 -1367 -648 -542 -257 -1298
-616 -1680 -797 -382 -181 -699 -333 -703 -337 -4 -4 92 -283 214 -620 122
-336 223 -610 226 -608 3 4 91 404 199 910 21 97 40 181 44 186 3 5 878 523
1945 1150 1067 627 1947 1145 1955 1150 20 13 0 13 -22 1z" />
<path d="M8783 8318 c-73 -282 -131 -514 -129 -516 6 -5 767 661 764 669 -3 9
-487 359 -497 359 -3 0 -65 -231 -138 -512z"/>
<path d="M8270 7857 c-63 -11 -117 -21 -119 -23 -8 -7 23 -164 32 -164 6 0 61
10 124 21 89 17 113 25 113 38 0 33 -20 135 -27 141 -5 4 -60 -2 -123 -13z"/>
<path d="M7785 7744 c-60 -13 -124 -21 -142 -19 -53 9 -513 -108 -513 -130 0
-6 -47 -26 -104 -43 l-105 -32 21 -61 c12 -37 25 -59 32 -56 68 27 182 56 197
52 10 -3 80 11 156 31 76 20 181 47 235 59 53 12 103 28 111 37 9 8 60 23 114
33 148 28 142 23 129 88 -6 31 -13 57 -16 60 -3 2 -54 -7 -115 -19z"/>
<path d="M6495 7366 c-111 -53 -303 -162 -328 -185 -5 -5 62 -113 86 -137 2
-3 41 18 87 46 45 29 141 81 213 116 72 36 133 67 136 69 4 5 -47 133 -58 147
-3 4 -64 -21 -136 -56z"/>
<path d="M5889 6928 c-62 -62 -123 -118 -134 -123 -32 -16 -157 -213 -205
-321 -28 -63 -44 -116 -45 -144 -2 -39 -9 -76 -31 -151 -4 -13 8 -19 57 -28
33 -7 62 -11 63 -9 2 2 11 33 20 71 11 38 24 67 31 67 7 0 16 12 20 28 13 55
87 198 151 294 36 54 62 102 59 108 -3 5 44 59 105 120 l112 111 -37 44 c-20
25 -40 45 -45 45 -4 0 -59 -51 -121 -112z"/>
<path d="M5418 5811 c-14 -14 -18 -35 -18 -102 0 -153 41 -439 62 -439 11 0
150 39 154 43 2 2 -1 19 -6 38 -18 61 -40 258 -40 355 0 56 -4 94 -10 94 -5 0
-10 7 -10 15 0 23 -109 20 -132 -4z"/>
<path d="M5573 5169 c-29 -11 -53 -26 -53 -33 0 -21 141 -296 151 -296 9 0 99
58 99 63 0 1 -29 60 -65 131 -36 70 -65 134 -65 142 0 18 -4 17 -67 -7z"/>
<path d="M5760 4824 c-34 -24 -65 -46 -68 -48 -19 -20 334 -406 358 -391 6 3
28 -7 48 -24 l39 -30 36 44 c20 24 37 48 37 53 0 4 -14 18 -30 31 -17 12 -30
27 -28 34 1 7 -50 64 -113 127 -64 63 -138 145 -166 182 l-50 66 -63 -44z"/>
<path d="M6448 4184 c-16 -25 -28 -49 -28 -54 0 -5 13 -16 29 -24 16 -9 31
-24 33 -34 5 -16 185 -129 380 -236 l67 -37 27 53 c15 29 33 63 41 74 13 20 9
24 -99 84 -62 35 -161 92 -220 127 -59 36 -112 62 -118 58 -5 -3 -23 3 -39 14
-16 12 -33 21 -38 21 -4 0 -20 -21 -35 -46z"/>
<path d="M7025 3845 c-16 -30 -27 -56 -24 -59 2 -2 68 -37 146 -79 l142 -75
31 55 c17 30 30 56 28 58 -2 1 -68 36 -148 78 l-145 76 -30 -54z"/>
<path d="M7424 3629 c-19 -39 -34 -72 -32 -74 2 -1 53 -28 113 -60 61 -32 157
-84 215 -115 58 -32 118 -58 135 -58 26 0 34 6 58 50 16 28 25 54 20 57 -5 3
-12 13 -15 22 -6 14 -84 60 -349 203 -47 25 -91 46 -97 46 -7 0 -28 -32 -48
-71z"/>
<path d="M8200 3200 c-17 -27 -29 -54 -25 -60 3 -5 26 -22 51 -36 25 -15 49
-35 52 -44 4 -10 70 -65 147 -123 77 -57 163 -125 192 -151 30 -27 57 -44 66
-41 9 4 52 -34 125 -111 l111 -117 45 37 c25 21 46 41 46 45 0 4 -51 61 -114
126 -63 65 -113 122 -110 126 12 20 -380 323 -420 325 -13 1 -43 14 -67 31
-24 16 -49 33 -55 36 -7 4 -25 -13 -44 -43z"/>
<path d="M2530 3198 c0 -4 -7 -8 -15 -8 -21 0 -21 -115 0 -137 9 -9 48 -19 93
-24 98 -12 218 -43 307 -79 l70 -28 32 66 c18 37 32 72 33 78 0 20 -185 88
-310 113 -83 17 -210 28 -210 19z"/>
<path d="M2095 3093 c-22 -14 -52 -37 -67 -50 -14 -14 -31 -23 -36 -19 -19 12
-104 -99 -159 -209 -48 -96 -104 -253 -98 -278 3 -12 -16 -85 -43 -166 l-48
-144 33 -14 c19 -7 46 -16 61 -19 27 -6 28 -5 77 148 28 84 54 151 58 148 5
-3 26 41 47 97 47 126 101 229 146 282 20 22 33 45 30 49 -6 10 34 49 77 76
l27 17 -26 47 c-38 66 -35 65 -79 35z"/>
<path d="M3134 2938 c-25 -49 -25 -53 -9 -63 10 -5 66 -41 124 -80 58 -38 111
-73 117 -77 7 -5 26 11 48 40 l37 47 -37 31 c-44 37 -229 154 -243 154 -6 0
-23 -23 -37 -52z"/>
<path d="M3467 2732 c-25 -33 -47 -63 -49 -69 -2 -5 31 -38 72 -73 41 -35 126
-111 188 -168 62 -58 116 -102 119 -98 4 3 22 -8 40 -26 l33 -32 45 44 45 44
-34 36 c-18 19 -32 40 -30 46 6 13 -202 206 -367 341 -14 12 -22 5 -62 -45z"/>
<path d="M9081 2416 c-35 -25 -65 -47 -68 -49 -2 -3 16 -36 40 -73 65 -101
111 -189 148 -279 18 -44 34 -82 36 -84 1 -2 37 9 79 24 91 33 91 22 3 205
-48 100 -163 300 -173 300 -1 0 -30 -20 -65 -44z"/>
<path d="M4152 2077 l-42 -43 30 -29 c17 -16 28 -35 26 -42 -5 -11 132 -139
310 -291 l71 -61 34 37 c19 20 44 49 57 63 l22 25 -92 80 c-51 43 -136 118
-190 167 -53 48 -103 87 -111 87 -7 0 -24 11 -37 25 -13 14 -26 25 -30 25 -3
0 -25 -19 -48 -43z"/>
<path d="M1555 2040 c-6 -10 -125 -466 -125 -480 0 -9 115 -50 141 -50 18 0
20 7 88 270 22 85 45 170 50 188 7 24 7 34 -2 37 -49 18 -132 45 -138 45 -4 0
-11 -4 -14 -10z"/>
<path d="M4648 1626 l-37 -44 121 -112 120 -112 45 44 45 45 -63 59 c-35 32
-89 83 -120 112 -31 28 -60 52 -65 52 -5 -1 -26 -20 -46 -44z"/>
<path d="M9383 1658 c-24 -5 -43 -15 -43 -21 0 -7 7 -52 15 -102 8 -49 12 -91
7 -92 -8 -3 -7 -491 1 -499 7 -7 -19 -118 -44 -187 -12 -32 -20 -59 -18 -60
12 -7 100 -47 105 -47 10 0 45 95 66 179 12 47 29 91 37 98 14 10 16 46 16
263 0 216 -2 253 -16 263 -9 8 -20 44 -28 97 -19 134 -13 127 -98 108z"/>
<path d="M4981 1319 c-54 -59 -54 -60 -35 -78 47 -44 235 -211 292 -260 35
-30 71 -55 81 -56 9 0 21 -4 28 -8 6 -4 27 12 50 40 36 44 38 50 27 73 -7 14
-52 59 -101 101 -48 42 -131 115 -183 163 -52 47 -97 85 -100 85 -3 -1 -29
-28 -59 -60z"/>
<path d="M1280 1218 c-25 -34 -52 -65 -60 -69 -8 -4 -26 -12 -40 -18 -14 -7
-50 -28 -80 -47 -61 -38 -172 -77 -274 -95 -36 -6 -64 -15 -61 -19 7 -11 -48
-20 -125 -20 -37 0 -82 -3 -99 -6 -31 -6 -31 -7 -31 -67 l0 -60 134 6 c76 3
137 2 142 -3 12 -12 186 23 270 55 101 38 256 136 241 152 -4 3 14 29 39 57
26 28 59 70 75 93 l30 43 -48 30 c-26 16 -52 29 -58 29 -5 0 -30 -28 -55 -61z"/>
<path d="M0 897 l0 -87 88 0 c48 0 103 -3 123 -6 l37 -6 4 83 c2 46 4 85 3 87
-1 1 -59 5 -128 9 l-127 6 0 -86z"/>
<path d="M5671 765 c-18 -25 -30 -52 -28 -59 3 -8 31 -29 61 -47 31 -19 54
-39 52 -45 -8 -20 432 -261 459 -250 8 3 65 -16 127 -43 62 -26 132 -55 155
-64 l42 -16 18 52 c10 29 18 56 18 60 0 7 -227 108 -277 124 -10 3 -18 11 -18
18 0 8 -69 49 -152 92 -84 44 -183 98 -220 120 -38 23 -70 37 -75 32 -5 -5
-24 1 -43 15 -94 63 -83 62 -119 11z"/>
<path d="M9103 482 c-66 -60 -138 -104 -255 -154 -51 -22 -94 -41 -95 -42 -3
-3 45 -147 51 -153 6 -6 157 56 226 94 74 40 183 118 220 157 l24 27 -59 59
-60 59 -52 -47z"/>
<path d="M6732 244 c-13 -42 -21 -78 -18 -81 10 -11 215 -64 336 -88 190 -37
173 -39 182 25 4 30 10 67 12 82 5 26 4 26 -87 43 -51 9 -161 34 -246 56 -85
21 -154 39 -155 39 -1 0 -11 -34 -24 -76z"/>
<path d="M8495 205 c-5 -2 -59 -11 -119 -20 -75 -11 -111 -13 -116 -5 -4 7
-43 7 -126 0 -65 -5 -179 -10 -251 -10 -87 0 -133 -4 -133 -11 0 -6 -36 -9
-102 -8 l-103 2 -3 -61 -3 -60 106 -7 c61 -4 105 -12 105 -18 0 -7 64 -8 198
-4 242 8 332 16 332 31 0 7 53 18 133 29 72 11 133 20 135 22 2 2 -2 30 -9 64
-11 57 -18 66 -44 56z"/>
</g>
</svg>
